# xmcd
#
# Track frame offsets:
#	150
#	12699
#	26982
#	38033
#	55103
#	67143
#	80625
#	93898
#	109812
#	122479
#	138685
#	152077
#	165901
#	176311
#	187655
#	196888
#	206337
#	218635
#	230787
#	244764
#
# Disc length: 3387 seconds
#
# Revision: 0
# Processed by: cddbd v1.5.2PL0 Copyright (c) Steve Scherf et al.
# Submitted via: EZCDAudioConverter 2.8.0.1
#
DISCID=0f0d3914
DTITLE=Merle Haggard - The Roots Of My Rising and A Working Man Can't Get Nowher
DTITLE=e Today
DYEAR=1977
DGENRE=Country
TTITLE0=The Roots Of My Rising
TTITLE1=What have You Got Planned Tonight Diana
TTITLE2=The Waltz You Saved For Me
TTITLE3=Walk On The Outside
TTITLE4=Gamblin' Polka Dot Blues
TTITLE5=Cherokee Maiden
TTITLE6=Am I Standing In Your Way
TTITLE7=Colorado
TTITLE8=I Never Go Around Mirrors
TTITLE9=Mississippi Delta Blues
TTITLE10=A Working Man Can't Get Nowhere Today
TTITLE11=Making Believe
TTITLE12=Blues Stay Away From Me
TTITLE13=Got A Letter From My Kid Today
TTITLE14=When My Last Song Is Sung
TTITLE15=Moanin' The Blues
TTITLE16=Goodbye Lefty
TTITLE17=Blues For Dixie
TTITLE18=Running Kind
TTITLE19=I'm A White Boy
EXTD=
EXTT0=
EXTT1=
EXTT2=
EXTT3=
EXTT4=
EXTT5=
EXTT6=
EXTT7=
EXTT8=
EXTT9=
EXTT10=
EXTT11=
EXTT12=
EXTT13=
EXTT14=
EXTT15=
EXTT16=
EXTT17=
EXTT18=
EXTT19=
PLAYORDER=
